<?xml version="1.0" encoding="utf-8"?>
<!-- Generator: Adobe Illustrator 27.5.0, SVG Export Plug-In . SVG Version: 6.00 Build 0)  -->
<svg version="1.1" xmlns="http://www.w3.org/2000/svg" xmlns:xlink="http://www.w3.org/1999/xlink" x="0px" y="0px"
	 viewBox="0 0 500 500" style="enable-background:new 0 0 500 500;" xml:space="preserve">
<g id="BACKGROUND">
	<rect style="fill:#C4C8FF;" width="500" height="500"/>
</g>
<g id="OBJECTS">
	<path style="fill:#D8DBFF;" d="M260.076,83.802c15.862-3.016,31.925-5.502,48.069-5.226c16.144,0.276,32.472,3.427,46.667,11.123
		c16.327,8.852,29.387,23.121,40.631,37.903c17.802,23.402,26.655,53.443,24.39,82.759c-2.532,32.765-18.391,63.365-39.23,88.775
		c-20.84,25.41-46.613,49.284-72.478,69.557c-15.23,11.937-35.856,16.693-54.775,12.628c-18.919-4.064-40.168-15.496-43.663-34.529
		c-3.602-19.62-15.99-37.455-33.117-47.681c-13.258-7.915-30.732-10.893-44.751-17.365c-25.755-11.891-42.156-39.479-45.148-67.689
		c-2.992-28.21,5.985-56.684,20.309-81.17c14.672-25.083,36.689-45.612,64.469-54.14C199.227,70.221,234.025,70.926,260.076,83.802z
		"/>
	<g>
		<polygon style="fill:none;stroke:#060305;stroke-linecap:round;stroke-linejoin:round;stroke-miterlimit:10;" points="
			382.069,146.206 376.337,156.134 387.8,156.134 		"/>
		<polygon style="fill:#060305;" points="95.991,240.645 86.064,234.913 86.064,246.377 		"/>
		<polygon style="fill:#814EFF;" points="406.779,322.276 412.511,312.348 401.048,312.348 		"/>
		<path style="fill:#060305;" d="M397.717,179.941c0-0.879-0.712-1.592-1.591-1.592c-0.879,0-1.591,0.712-1.591,1.592
			c0,0.879,0.712,1.591,1.591,1.591C397.004,181.533,397.717,180.82,397.717,179.941z"/>
		<path style="fill:none;stroke:#060305;stroke-linecap:round;stroke-linejoin:round;stroke-miterlimit:10;" d="M378.165,324.566
			c0-0.879-0.713-1.591-1.592-1.591c-0.879,0-1.591,0.712-1.591,1.591c0,0.879,0.713,1.591,1.591,1.591
			C377.452,326.158,378.165,325.445,378.165,324.566z"/>
		<path style="fill:#814EFF;" d="M200.889,256.442c0-0.879-0.712-1.591-1.591-1.591c-0.879,0-1.591,0.713-1.591,1.591
			c0,0.879,0.712,1.591,1.591,1.591C200.177,258.034,200.889,257.321,200.889,256.442z"/>
		<path style="fill:#814EFF;" d="M142.974,307.29c0-0.879-0.713-1.591-1.592-1.591c-0.879,0-1.591,0.712-1.591,1.591
			c0,0.879,0.712,1.591,1.591,1.591C142.261,308.881,142.974,308.169,142.974,307.29z"/>
		<path style="fill:#814EFF;" d="M361.245,351.044c0-0.879-0.712-1.591-1.591-1.591c-0.879,0-1.592,0.712-1.592,1.591
			c0,0.879,0.713,1.591,1.592,1.591C360.533,352.636,361.245,351.923,361.245,351.044z"/>
		<path style="fill:#814EFF;" d="M422.673,151.672c0-0.879-0.713-1.591-1.592-1.591c-0.879,0-1.591,0.712-1.591,1.591
			c0,0.879,0.712,1.591,1.591,1.591C421.96,153.263,422.673,152.551,422.673,151.672z"/>
		<path style="fill:#060305;" d="M362.837,271.937c0-0.879-0.712-1.591-1.591-1.591c-0.879,0-1.591,0.713-1.591,1.591
			s0.712,1.591,1.591,1.591C362.124,273.529,362.837,272.816,362.837,271.937z"/>
		<path style="fill:none;stroke:#060305;stroke-linecap:round;stroke-linejoin:round;stroke-miterlimit:10;" d="M183.845,205.61
			c0-0.879-0.713-1.591-1.592-1.591c-0.879,0-1.591,0.713-1.591,1.591c0,0.879,0.713,1.592,1.591,1.592
			C183.132,207.201,183.845,206.489,183.845,205.61z"/>
		<path style="fill:none;stroke:#060305;stroke-linecap:round;stroke-linejoin:round;stroke-miterlimit:10;" d="M54.366,189.904
			c0-0.879-0.713-1.591-1.591-1.591c-0.879,0-1.591,0.712-1.591,1.591c0,0.879,0.712,1.591,1.591,1.591
			C53.653,191.496,54.366,190.783,54.366,189.904z"/>
		<path style="fill:#060305;" d="M186.499,268.137c0-0.879-0.713-1.591-1.591-1.591c-0.879,0-1.592,0.713-1.592,1.591
			c0,0.879,0.713,1.592,1.592,1.592C185.786,269.728,186.499,269.016,186.499,268.137z"/>
		<path style="fill:#814EFF;" d="M155.446,317.312c0-0.879-0.712-1.591-1.592-1.591c-0.879,0-1.591,0.712-1.591,1.591
			c0,0.879,0.713,1.591,1.591,1.591C154.733,318.904,155.446,318.191,155.446,317.312z"/>
	</g>
	<g>
		<g>
			<rect x="86.391" y="27.588" style="fill:#FFFFFF;" width="214.255" height="140.608"/>
			<g>
				<rect x="86.391" y="27.588" style="fill:#9E97FF;" width="214.255" height="19.774"/>
				<circle style="fill:#814EFF;" cx="97.294" cy="37.475" r="2.949"/>
				<circle style="fill:#814EFF;" cx="109.749" cy="37.475" r="2.949"/>
				<path style="fill:#814EFF;" d="M125.153,37.475c0-1.629-1.32-2.949-2.949-2.949c-1.629,0-2.949,1.32-2.949,2.949
					c0,1.629,1.32,2.949,2.949,2.949C123.832,40.424,125.153,39.104,125.153,37.475z"/>
				
					<line style="fill:none;stroke:#060305;stroke-linecap:round;stroke-linejoin:round;stroke-miterlimit:10;" x1="295.107" y1="34.914" x2="131.792" y2="34.914"/>
				
					<line style="fill:none;stroke:#060305;stroke-linecap:round;stroke-linejoin:round;stroke-miterlimit:10;" x1="295.107" y1="40.035" x2="131.792" y2="40.035"/>
			</g>
		</g>
		<g>
			<g>
				<path style="fill:#9E97FF;" d="M149.842,209.807l-30.115,16.763l-30.115-16.763c-15.257-8.493-24.717-24.585-24.717-42.046
					V96.41l54.832-20.684l54.832,20.684v71.35C174.559,185.223,165.099,201.314,149.842,209.807z"/>
				<path style="fill:#814EFF;" d="M144.815,200.017l-25.089,13.965l-25.089-13.965c-12.711-7.076-20.592-20.481-20.592-35.029
					v-61.564l45.681-17.232l45.681,17.232v61.564C165.407,179.536,157.527,192.942,144.815,200.017z"/>
				<path style="fill:none;stroke:#060305;stroke-linecap:round;stroke-linejoin:round;stroke-miterlimit:10;" d="M149.824,205.176
					c12.586-5.969,21.177-19.54,21.187-33.47"/>
				<path style="fill:none;stroke:#FFFFFF;stroke-linecap:round;stroke-linejoin:round;stroke-miterlimit:10;" d="M69.432,98.314
					c13.9-5.483,27.801-10.965,41.701-16.448"/>
				
					<line style="fill:none;stroke:#060305;stroke-linecap:round;stroke-linejoin:round;stroke-miterlimit:10;" x1="119.726" y1="75.726" x2="119.726" y2="226.57"/>
			</g>
			<g>
				
					<ellipse transform="matrix(0.9724 -0.2332 0.2332 0.9724 -32.545 32.1569)" style="fill:#FFFFFF;" cx="119.726" cy="153.719" rx="37.009" ry="37.009"/>
				<polygon style="fill:#FF99A8;" points="118.725,181.329 89.667,146.976 99.768,138.433 117.295,159.159 143.627,118.381 
					154.74,125.554 				"/>
			</g>
		</g>
		<g>
			<g>
				<polygon style="fill:#814EFF;" points="371.76,68.853 255.99,68.853 255.99,94.6 347.968,94.6 352.628,102.67 357.287,94.6 
					371.76,94.6 				"/>
				<polygon style="fill:#FFFFFF;" points="271.051,88.233 264.634,80.647 266.865,78.761 270.735,83.338 276.55,74.333 
					279.004,75.917 				"/>
				<g>
					
						<line style="fill:none;stroke:#060305;stroke-linecap:round;stroke-linejoin:round;stroke-miterlimit:10;" x1="364.619" y1="76.606" x2="286.18" y2="76.606"/>
					
						<line style="fill:none;stroke:#060305;stroke-linecap:round;stroke-linejoin:round;stroke-miterlimit:10;" x1="364.619" y1="81.726" x2="286.18" y2="81.726"/>
					
						<line style="fill:none;stroke:#060305;stroke-linecap:round;stroke-linejoin:round;stroke-miterlimit:10;" x1="364.619" y1="86.847" x2="286.18" y2="86.847"/>
				</g>
			</g>
			<g>
				<polygon style="fill:#FFFFFF;" points="316.119,111.821 431.889,111.821 431.889,137.568 339.911,137.568 335.251,145.638 
					330.592,137.568 316.119,137.568 				"/>
				<polygon style="fill:#814EFF;" points="414.328,131.201 407.912,123.615 410.142,121.729 414.013,126.305 419.828,117.301 
					422.281,118.885 				"/>
				<g>
					
						<line style="fill:none;stroke:#060305;stroke-linecap:round;stroke-linejoin:round;stroke-miterlimit:10;" x1="400.465" y1="119.555" x2="322.025" y2="119.555"/>
					
						<line style="fill:none;stroke:#060305;stroke-linecap:round;stroke-linejoin:round;stroke-miterlimit:10;" x1="400.465" y1="124.676" x2="322.025" y2="124.676"/>
					
						<line style="fill:none;stroke:#060305;stroke-linecap:round;stroke-linejoin:round;stroke-miterlimit:10;" x1="400.465" y1="129.797" x2="322.025" y2="129.797"/>
				</g>
			</g>
		</g>
	</g>
	<g>
		<ellipse style="fill:#9E97FF;" cx="260.641" cy="471.235" rx="116.715" ry="7.461"/>
		<g>
			<path style="fill:#060305;" d="M338.807,463.832c-6.01-6.26-6.011-16.172-2.271-24.002c-16.893,0.396-32.693,1.59-49.586,1.986
				c0.291,9.241,0.583,18.481,0.874,27.722l58.54,1.698C346.364,467.236,340.942,466.056,338.807,463.832z"/>
			<path style="fill:none;stroke:#FFFFFF;stroke-linecap:round;stroke-linejoin:round;stroke-miterlimit:10;" d="M315.33,449.649
				c4.245-0.119,8.49-0.238,12.736-0.358"/>
			<path style="fill:none;stroke:#FFFFFF;stroke-linecap:round;stroke-linejoin:round;stroke-miterlimit:10;" d="M316.076,453.165
				c4.577,0.015,9.154,0.029,13.73,0.044"/>
			<path style="fill:none;stroke:#FFFFFF;stroke-linecap:round;stroke-linejoin:round;stroke-miterlimit:10;" d="M317.323,457.198
				c4.411,0.047,8.821,0.094,13.232,0.141"/>
		</g>
		<g>
			<path style="fill:#060305;" d="M219.197,463.033c-4.947-3.127-7.172-9.526-8.394-15.248c-0.999-4.674-0.493-10.506,1.824-14.686
				c-16.273-4.058-32.126-7.65-48.4-11.708c-1.547,10.763-3.094,21.527-4.641,32.29c8.418,5.229,16.857,10.739,25.275,15.968
				l41.255,0.148C226.83,465.596,221.966,464.783,219.197,463.033z"/>
			<path style="fill:none;stroke:#FFFFFF;stroke-linecap:round;stroke-linejoin:round;stroke-miterlimit:10;" d="M191.006,443.297
				c4.242-0.087,8.484-0.174,12.726-0.261"/>
			<path style="fill:none;stroke:#FFFFFF;stroke-linecap:round;stroke-linejoin:round;stroke-miterlimit:10;" d="M190.256,447.103
				c4.911,0.113,9.822,0.227,14.733,0.34"/>
			<path style="fill:none;stroke:#FFFFFF;stroke-linecap:round;stroke-linejoin:round;stroke-miterlimit:10;" d="M191.753,451.137
				c5.243,0.146,10.486,0.291,15.729,0.437"/>
		</g>
		<g>
			<path style="fill:#814EFF;" d="M333.472,232.733l-101.088,7.706c-8.741,29.207-17.482,58.414-26.223,87.621
				c-15.72,25.702-36.211,60.785-45.519,95.276c18.764,5.861,37.487,11.218,56.25,17.079c12.227-25.716,24.946-51.376,37.172-77.091
				c8.633-18.156,17.247-35.77,25.738-53.992c2.153,15.241,3.286,30.691,5.439,45.932c-0.781,31.568-1.679,59.225-2.733,89.056
				c19.22,0.303,39.057-0.742,58.277-0.439c0.134-31.082,0.141-62.103,0.276-93.185C341.232,311.43,335.907,271.922,333.472,232.733
				z"/>
			<path style="fill:none;stroke:#060305;stroke-linecap:round;stroke-linejoin:round;stroke-miterlimit:10;" d="M279.645,309.924
				c1.985-5.55,3.97-11.1,5.955-16.65"/>
			<path style="fill:none;stroke:#060305;stroke-linecap:round;stroke-linejoin:round;stroke-miterlimit:10;" d="M236.553,254.402
				c-7.111,24.478-14.222,48.956-21.334,73.434c1.145-0.182,1.222,1.401,1.269,2.559c0.047,1.158-0.683,2.23-1.599,2.939
				c-1.248,0.966-2.892,1.404-4.455,1.187c-15.964,24.912-29.778,50.784-40.079,78.521"/>
			<path style="fill:none;stroke:#060305;stroke-linecap:round;stroke-linejoin:round;stroke-miterlimit:10;" d="M164.934,411.94
				c18.654,6.198,37.308,12.397,55.962,18.595"/>
			<path style="fill:none;stroke:#060305;stroke-linecap:round;stroke-linejoin:round;stroke-miterlimit:10;" d="M284.379,433.043
				c18.385-0.581,36.77-1.161,55.155-1.742"/>
			<path style="fill:none;stroke:#060305;stroke-linecap:round;stroke-linejoin:round;stroke-miterlimit:10;" d="M283.048,300.871
				c2.919,16.779,5.839,33.558,8.758,50.337c-1.383,2.401-1.685,6.051,0.334,7.948c-0.993,24.465-2.194,48.704-3.187,73.169"/>
		</g>
		<path style="fill:#C14F4F;" d="M365.118,175.118c9.375,6.324,18.235,25.227,14.367,37.369
			c-3.868,12.142-13.604,16.761-22.466,18.883c-8.862,2.122-30.082-6.517-30.082-6.517l-7.282-25.936l23.672-22.335L365.118,175.118
			z"/>
		<g>
			<path style="fill:#FFFFFF;" d="M350.033,185.572c-5.209-5.547-8.682-12.389-14.25-17.575
				c-10.308-9.602-24.594-13.485-38.68-13.669c-6.949-0.091-13.778-0.416-20.727-0.507c-0.242,1.706-1.453,3.217-3.026,3.92
				c-1.573,0.703-3.454,0.617-5.005-0.133c-1.551-0.75-2.728-2.192-3.381-3.786c-6.114,2.377-12.229,4.753-18.343,7.129
				c-14.032,5.454-26.553,15.045-33.84,28.218c8.048,3.2,15.669,6.972,23.717,10.172c-1.467,13.974-3.084,28.041-4.551,42.015
				l100.435,2.999c-0.988-14.968-3.318-29.929-7.246-44.406C333.425,195.098,341.742,190.422,350.033,185.572z"/>
			<path style="fill:none;stroke:#060305;stroke-linecap:round;stroke-linejoin:round;stroke-miterlimit:10;" d="M256.995,157.697
				c3.067,5.328,9.402,8.581,15.52,7.97c6.117-0.611,11.683-5.055,13.635-10.885"/>
			<path style="fill:none;stroke:#060305;stroke-linecap:round;stroke-linejoin:round;stroke-miterlimit:10;" d="M242.544,163.627
				c3.004-1.824,7.11-1.136,9.823,1.098c2.713,2.234,4.153,5.731,4.546,9.223c0.394,3.492-0.156,7.019-0.828,10.468
				c-1.093,5.61-2.517,11.156-4.26,16.6"/>
			<path style="fill:none;stroke:#060305;stroke-linecap:round;stroke-linejoin:round;stroke-miterlimit:10;" d="M305.29,155.328
				c2.75,8.858,7.036,17.148,11.299,25.384c3.186,6.155,6.372,12.309,9.559,18.464"/>
		</g>
		<g>
			<path style="fill:#C14F4F;" d="M270.626,277.579c0,0,16.43,8.338,29.162,10.772l18.355-7.602l4.174-6.44l-37.856-13.834
				l-19.686,7.662L270.626,277.579z"/>
			<path style="fill:none;stroke:#060305;stroke-linecap:round;stroke-linejoin:round;stroke-miterlimit:10;" d="M301.296,282.638
				c5.568-1.807,11.137-3.614,16.705-5.422"/>
		</g>
		<g>
			<g>
				<path style="fill:#F6921E;" d="M351.897,210.635l-10.872-0.908c0.203-2.455,0.099-4.859-0.317-7.142
					c-2.696-14.828-16.952-24.697-31.778-22.002c-14.83,2.696-24.699,16.952-22.003,31.78c0.413,2.271,1.161,4.559,2.222,6.801
					l-9.865,4.667c-1.467-3.105-2.508-6.307-3.091-9.517c-3.772-20.746,10.04-40.694,30.786-44.466
					c20.746-3.772,40.692,10.039,44.464,30.785C352.029,203.858,352.183,207.224,351.897,210.635z"/>
				<path style="fill:none;stroke:#FFFFFF;stroke-linecap:round;stroke-linejoin:round;stroke-miterlimit:10;" d="M280.921,193.564
					c3.392-9.872,12.034-17.764,22.172-20.249"/>
			</g>
			<g>
				<path style="fill:#FFCF8F;" d="M270.785,220.027c-0.326,3.95,1.103,15.152,1.845,19.237
					c4.565,25.109,28.621,41.763,53.73,37.198c25.109-4.565,41.764-28.621,37.199-53.73c-0.743-4.085-3.349-15.073-5.044-18.655
					L270.785,220.027z"/>
				<path style="fill:#060305;" d="M327.324,230.162c-0.912-5.015-5.717-8.341-10.732-7.429c-5.014,0.912-8.34,5.716-7.428,10.731
					c0.739,4.064,4.045,6.975,7.938,7.464l0.12,19.851l12.174-2.213l-6.875-18.623C325.993,238.115,328.063,234.227,327.324,230.162
					z"/>
				<path style="fill:none;stroke:#060305;stroke-linecap:round;stroke-linejoin:round;stroke-miterlimit:10;" d="M307.182,231.987
					c-0.197-2.429,0.484-4.919,1.888-6.91c1.404-1.991,3.521-3.469,5.875-4.099"/>
				<path style="fill:none;stroke:#060305;stroke-linecap:round;stroke-linejoin:round;stroke-miterlimit:10;" d="M341.262,266.901
					c11.539-7.678,18.979-21.18,19.306-35.036"/>
			</g>
		</g>
		<g>
			<g>
				<path style="fill:none;stroke:#060305;stroke-linecap:round;stroke-linejoin:round;stroke-miterlimit:10;" d="M260.034,131.405
					c0.578,0.138,1.156,0.276,1.733,0.414"/>
				<path style="fill:#060305;" d="M271.39,126.883c-4.123-0.045-8.198,2.186-10.382,5.683c-2.184,3.497-2.4,8.138-0.55,11.823
					l19.667-4.874c0.527-2.239,0.993-4.484,1.52-6.724C279.539,129.247,275.513,126.928,271.39,126.883z"/>
			</g>
			<g>
				<path style="fill:#C14F4F;" d="M282.63,155.22c-1.57,0.003-3.206,0.121-4.776,0.124c-0.009-1.236,0.051-2.572,0.042-3.808
					c2.112-0.508,3.987-1.929,5.047-3.824c1.06-1.896,1.455-4.161,0.697-6.197c-0.969-2.605-1.851-5.413-2.82-8.017
					c-1.353,1.458-3.309,2.314-5.279,2.04c-2.411,2.327-6.453,2.967-9.449,1.467c-0.086,1.537,0.057,2.731-0.029,4.268
					c-1.74-0.791-3.951-0.393-5.307,0.956c-1.355,1.348-1.766,3.556-0.985,5.301c0.781,1.745,2.701,2.91,4.609,2.798
					c-0.273,1.769-0.754,3.56-1.027,5.329c-1.211,0.478-2.668,0.993-3.879,1.471c2.566,3.899,7.284,6.27,11.941,5.965
					C276.076,162.787,280.593,159.42,282.63,155.22z"/>
				<g>
					<circle style="fill:#060305;" cx="272.41" cy="142.104" r="1"/>
					<circle style="fill:#060305;" cx="280.658" cy="139.347" r="1"/>
					<path style="fill:none;stroke:#060305;stroke-linecap:round;stroke-linejoin:round;stroke-miterlimit:10;" d="M277.253,139.882
						c0.455,1.02,0.91,2.04,1.365,3.059c-0.356,0.044-0.875,0.171-1.231,0.215"/>
					<path style="fill:none;stroke:#060305;stroke-linecap:round;stroke-linejoin:round;stroke-miterlimit:10;" d="M275.903,144.847
						c0.112,0.398,0.45,0.725,0.852,0.822c0.402,0.098,0.852-0.038,1.134-0.34"/>
					<path style="fill:none;stroke:#060305;stroke-linecap:round;stroke-linejoin:round;stroke-miterlimit:10;" d="M270.273,139.334
						c0.274-0.648,0.808-1.18,1.456-1.452c0.648-0.272,1.403-0.28,2.056-0.021"/>
					<path style="fill:none;stroke:#060305;stroke-linecap:round;stroke-linejoin:round;stroke-miterlimit:10;" d="M278.653,136.335
						c0.557-0.156,1.113-0.312,1.67-0.468"/>
				</g>
				<g>
					<path style="fill:none;stroke:#060305;stroke-linecap:round;stroke-linejoin:round;stroke-miterlimit:10;" d="M262.626,144.316
						c0.845,0.025,1.691,0.051,2.536,0.076"/>
					<path style="fill:none;stroke:#060305;stroke-linecap:round;stroke-linejoin:round;stroke-miterlimit:10;" d="M271.034,151.595
						c2.476,0.71,5.152,0.707,7.626-0.009"/>
					<path style="fill:none;stroke:#060305;stroke-linecap:round;stroke-linejoin:round;stroke-miterlimit:10;" d="M264.151,150.41
						c0.601-0.224,1.202-0.447,1.802-0.671"/>
				</g>
			</g>
		</g>
		<g>
			<path style="fill:#C14F4F;" d="M365.118,175.118c-5.312-3.156-10.413-7.209-16.555-7.885c-8.963-0.986-17.983-1.452-27-1.393
				c-0.426,0.37-0.574,0.894-0.337,1.405c-0.876,0.016-1.834,0.163-2.71,0.179c-0.294,0.805-0.039,1.654,0.582,2.245
				c0.621,0.591,1.44,0.917,2.237,1.23c3.311,1.3,6.621,2.6,9.932,3.899c-2.438,0.412-4.876,0.472-7.314,0.884
				c-0.183,0.617,0.294,1.21,0.811,1.593c0.517,0.383,1.164,0.538,1.791,0.684c5.191,1.211,10.382,2.423,15.573,3.634
				c2.487,2.665,4.927,5.246,7.415,7.911c2.612,2.798,6.09,4.986,9.882,4.464c3.792-0.521,7.153-3.414,8.234-7.086
				C368.781,183.065,368.54,177.152,365.118,175.118z"/>
			<path style="fill:none;stroke:#060305;stroke-linecap:round;stroke-linejoin:round;stroke-miterlimit:10;" d="M330.557,174.537
				c3.869,0.024,7.739,0.048,11.608,0.072"/>
			<path style="fill:none;stroke:#060305;stroke-linecap:round;stroke-linejoin:round;stroke-miterlimit:10;" d="M320.981,166.891
				c9.061,1.034,18.123,2.068,27.184,3.103"/>
			<path style="fill:none;stroke:#060305;stroke-linecap:round;stroke-linejoin:round;stroke-miterlimit:10;" d="M347.394,187.034
				c3.204,5.07,9.643,7.872,15.537,6.762"/>
		</g>
		<g>
			<path style="fill:#C14F4F;" d="M284.057,252.869c-3.431-0.099-6.031-0.454-9.463-0.553
				c-10.871-10.536-21.682-21.171-32.553-31.706c2.293-6.787,4.587-13.574,6.88-20.361l-32.66-10.345
				c-2.615,8.012-5.95,16.314-8.165,24.446c-2.861,10.502-1.172,25.695,13.494,36.22c15.986,11.472,32.027,19.15,49.035,27.009
				l2.159-5.109c10.37-2.773,20.393-7.732,31.12-8.12c2.055-0.074,3.998-1.913,3.897-3.966
				C299.845,257.912,292.386,253.11,284.057,252.869z"/>
			<path style="fill:none;stroke:#060305;stroke-linecap:round;stroke-linejoin:round;stroke-miterlimit:10;" d="M289.491,267.202
				c-1.453,0.268-2.906,0.536-4.359,0.803"/>
			<path style="fill:none;stroke:#060305;stroke-linecap:round;stroke-linejoin:round;stroke-miterlimit:10;" d="M242.181,220.376
				c-1.456,0.29-2.913,0.581-4.369,0.871"/>
		</g>
	</g>
	<g>
		<path style="fill:none;stroke:#060305;stroke-linecap:round;stroke-linejoin:round;stroke-miterlimit:10;" d="M140.735,269.728
			L140.735,269.728c-0.988,3.07-5.332,3.07-6.32,0l0,0c-0.988-3.07-5.332-3.07-6.32,0l0,0c-0.988,3.07-5.332,3.07-6.32,0l0,0
			c-0.988-3.07-5.332-3.07-6.32,0l0,0c-0.988,3.07-5.332,3.07-6.32,0l0,0c-0.988-3.07-5.332-3.07-6.32,0l0,0
			c-0.988,3.07-5.332,3.07-6.32,0l0,0c-0.988-3.07-5.332-3.07-6.32,0l0,0c-0.988,3.07-5.332,3.07-6.32,0l0,0
			c-0.988-3.07-5.332-3.07-6.32,0"/>
		<path style="fill:none;stroke:#060305;stroke-linecap:round;stroke-linejoin:round;stroke-miterlimit:10;" d="M442.139,246.941
			L442.139,246.941c-0.988,3.07-5.332,3.07-6.32,0v0c-0.988-3.07-5.332-3.07-6.32,0v0c-0.988,3.07-5.332,3.07-6.32,0v0
			c-0.988-3.07-5.332-3.07-6.32,0v0c-0.988,3.07-5.332,3.07-6.32,0v0c-0.988-3.07-5.332-3.07-6.32,0l0,0
			c-0.988,3.07-5.332,3.07-6.32,0v0c-0.988-3.07-5.332-3.07-6.32,0v0c-0.988,3.07-5.332,3.07-6.32,0v0
			c-0.988-3.07-5.332-3.07-6.32,0"/>
		<path style="fill:none;stroke:#060305;stroke-linecap:round;stroke-linejoin:round;stroke-miterlimit:10;" d="M260.641,109.849
			L260.641,109.849c-0.988,3.07-5.332,3.07-6.32,0l0,0c-0.988-3.07-5.332-3.07-6.32,0l0,0c-0.988,3.07-5.332,3.07-6.32,0l0,0
			c-0.988-3.07-5.332-3.07-6.32,0l0,0c-0.988,3.07-5.332,3.07-6.32,0h0c-0.988-3.07-5.332-3.07-6.32,0l0,0
			c-0.988,3.07-5.332,3.07-6.32,0l0,0c-0.988-3.07-5.332-3.07-6.32,0l0,0c-0.988,3.07-5.332,3.07-6.32,0l0,0
			c-0.988-3.07-5.332-3.07-6.32,0"/>
	</g>
</g>
</svg>
